<svg xmlns="http://www.w3.org/2000/svg" viewBox="0 0 1000.76 1000.53"><defs><style>.cls-1{fill:#0052ff;}.cls-2{fill:#fff;}.cls-3{fill:#627eea;}.cls-4{fill:#c1ccf7;}.cls-5{fill:#8198ee;}</style></defs><g id="USDC"><circle class="cls-1" cx="500.27" cy="500.27" r="500.27"/><g id="ETH"><polygon class="cls-2" points="499.97 341.21 499.97 458.64 597.45 502.95 499.97 341.21"/><polygon class="cls-2" points="499.97 341.21 402.5 502.95 499.97 458.64 499.97 458.64 499.97 341.21"/><polygon class="cls-2" points="499.97 579.02 499.97 658.79 597.5 521.43 499.97 579.02"/><polygon class="cls-2" points="499.97 658.79 499.97 579.02 402.5 521.43 499.97 658.79"/><polygon class="cls-2" points="499.97 560.56 597.45 502.95 499.97 458.64 499.97 560.56"/><polygon class="cls-2" points="402.5 502.95 499.97 560.56 499.97 458.64 402.5 502.95"/></g></g><g id="all"><path class="cls-2" d="M136.21,370.41A109.51,109.51,0,0,0,245.73,479.93h0a108.76,108.76,0,0,0,77.45-32.1L500,270.92,676.8,447.83a108.76,108.76,0,0,0,77.45,32.1h0a109.52,109.52,0,0,0,77.44-187l-10.4-10.4,28.93-28.93L755,253.2l.43,95.27,28.93-28.92,10.4,10.4a57.22,57.22,0,0,1-40.46,97.68h0a56.87,56.87,0,0,1-40.47-16.78L537,233.92l40.38-40.41a56.87,56.87,0,0,1,40.47-16.78h0a56.8,56.8,0,0,1,40.45,16.76l26.23,26.23a26.15,26.15,0,1,0,37-37l-26.23-26.23a108.8,108.8,0,0,0-77.44-32.08h0a108.8,108.8,0,0,0-77.46,32.1L500,196.92l-40.36-40.39a108.8,108.8,0,0,0-77.46-32.1h0a108.78,108.78,0,0,0-77.44,32.08l-26.23,26.23a26.15,26.15,0,1,0,37,37l26.23-26.23a56.85,56.85,0,0,1,40.46-16.76h0a56.87,56.87,0,0,1,40.47,16.78L463,233.92,286.21,410.85a56.87,56.87,0,0,1-40.47,16.78h0A57.22,57.22,0,0,1,205.27,330l10.4-10.4,28.93,28.92L245,253.2l-95.27.43,28.93,28.93L168.29,293A108.8,108.8,0,0,0,136.21,370.41Z"/><path class="cls-2" d="M863.79,629.59A109.51,109.51,0,0,0,754.27,520.07h0a108.76,108.76,0,0,0-77.45,32.1L500,729.08,323.2,552.17a108.76,108.76,0,0,0-77.45-32.1h0a109.52,109.52,0,0,0-77.44,187l10.4,10.4-28.93,28.93,95.27.43-.43-95.27-28.93,28.92-10.4-10.4a57.22,57.22,0,0,1,40.46-97.68h0a56.87,56.87,0,0,1,40.47,16.78L463,766.08l-40.38,40.41a56.87,56.87,0,0,1-40.47,16.78h0a56.8,56.8,0,0,1-40.45-16.76l-26.23-26.23a26.15,26.15,0,1,0-37,37l26.23,26.23a108.8,108.8,0,0,0,77.44,32.08h0a108.8,108.8,0,0,0,77.46-32.1L500,803.08l40.36,40.39a108.8,108.8,0,0,0,77.46,32.1h0a108.78,108.78,0,0,0,77.44-32.08l26.23-26.23a26.15,26.15,0,0,0-37-37L658.3,806.51a56.85,56.85,0,0,1-40.46,16.76h0a56.87,56.87,0,0,1-40.47-16.78L537,766.08,713.79,589.15a56.87,56.87,0,0,1,40.47-16.78h0a57.22,57.22,0,0,1,40.46,97.68l-10.4,10.4L755.4,651.53,755,746.8l95.27-.43-28.93-28.93,10.4-10.4A108.8,108.8,0,0,0,863.79,629.59Z"/><circle class="cls-3" cx="750.76" cy="749.77" r="250"/><polygon class="cls-4" points="750.73 566.71 750.73 702.09 863.11 753.17 750.73 566.71"/><polygon class="cls-2" points="750.73 566.71 638.35 753.17 750.73 702.09 750.73 702.09 750.73 566.71"/><polygon class="cls-4" points="750.73 840.87 750.73 932.84 863.17 774.48 750.73 840.87"/><polygon class="cls-2" points="750.73 932.84 750.73 840.87 638.35 774.48 750.73 932.84"/><polygon class="cls-5" points="750.73 819.6 863.1 753.17 750.73 702.09 750.73 819.6"/><polygon class="cls-4" points="638.35 753.17 750.73 819.6 750.73 702.09 638.35 753.17"/></g></svg>