<svg xmlns="http://www.w3.org/2000/svg" xmlns:xlink="http://www.w3.org/1999/xlink" viewBox="0 0 1000.76 1000"><defs><style>.cls-1{fill:url(#linear-gradient);}.cls-2{opacity:0.8;}.cls-3{fill:#fff;}.cls-4{fill:#627eea;}.cls-5{fill:#c1ccf7;}.cls-6{fill:#8198ee;}</style><linearGradient id="linear-gradient" y1="500" x2="1000" y2="500" gradientUnits="userSpaceOnUse"><stop offset="0" stop-color="#734ce2"/><stop offset="1" stop-color="#534dfa"/></linearGradient></defs><g id="Layer_7" data-name="Layer 7"><circle class="cls-1" cx="500" cy="500" r="500"/></g><g id="all"><g class="cls-2"><rect class="cls-3" x="411.2" y="411.2" width="177.61" height="177.61" rx="39.64"/><path class="cls-3" d="M136.21,370.41A109.51,109.51,0,0,0,245.73,479.93h0a108.76,108.76,0,0,0,77.45-32.1L500,270.92,676.8,447.83a108.76,108.76,0,0,0,77.45,32.1h0a109.52,109.52,0,0,0,77.44-187l-10.4-10.4,28.93-28.93L755,253.2l.43,95.27,28.93-28.92,10.4,10.4a57.22,57.22,0,0,1-40.46,97.68h0a56.87,56.87,0,0,1-40.47-16.78L537,233.92l40.38-40.41a56.87,56.87,0,0,1,40.47-16.78h0a56.8,56.8,0,0,1,40.45,16.76l26.23,26.23a26.15,26.15,0,1,0,37-37l-26.23-26.23a108.8,108.8,0,0,0-77.44-32.08h0a108.8,108.8,0,0,0-77.46,32.1L500,196.92l-40.36-40.39a108.8,108.8,0,0,0-77.46-32.1h0a108.78,108.78,0,0,0-77.44,32.08l-26.23,26.23a26.15,26.15,0,1,0,37,37l26.23-26.23a56.85,56.85,0,0,1,40.46-16.76h0a56.87,56.87,0,0,1,40.47,16.78L463,233.92,286.21,410.85a56.87,56.87,0,0,1-40.47,16.78h0A57.22,57.22,0,0,1,205.27,330l10.4-10.4,28.93,28.92L245,253.2l-95.27.43,28.93,28.93L168.29,293A108.8,108.8,0,0,0,136.21,370.41Z"/><path class="cls-3" d="M863.79,629.59A109.51,109.51,0,0,0,754.27,520.07h0a108.76,108.76,0,0,0-77.45,32.1L500,729.08,323.2,552.17a108.76,108.76,0,0,0-77.45-32.1h0a109.52,109.52,0,0,0-77.44,187l10.4,10.4-28.93,28.93,95.27.43-.43-95.27-28.93,28.92-10.4-10.4a57.22,57.22,0,0,1,40.46-97.68h0a56.87,56.87,0,0,1,40.47,16.78L463,766.08l-40.38,40.41a56.87,56.87,0,0,1-40.47,16.78h0a56.8,56.8,0,0,1-40.45-16.76l-26.23-26.23a26.15,26.15,0,1,0-37,37l26.23,26.23a108.8,108.8,0,0,0,77.44,32.08h0a108.8,108.8,0,0,0,77.46-32.1L500,803.08l40.36,40.39a108.8,108.8,0,0,0,77.46,32.1h0a108.78,108.78,0,0,0,77.44-32.08l26.23-26.23a26.15,26.15,0,0,0-37-37L658.3,806.51a56.85,56.85,0,0,1-40.46,16.76h0a56.87,56.87,0,0,1-40.47-16.78L537,766.08,713.79,589.15a56.87,56.87,0,0,1,40.47-16.78h0a57.22,57.22,0,0,1,40.46,97.68l-10.4,10.4L755.4,651.53,755,746.8l95.27-.43-28.93-28.93,10.4-10.4A108.8,108.8,0,0,0,863.79,629.59Z"/></g><circle class="cls-4" cx="750.76" cy="749.77" r="250"/><polygon class="cls-5" points="750.73 566.71 750.73 702.09 863.11 753.17 750.73 566.71"/><polygon class="cls-3" points="750.73 566.71 638.35 753.17 750.73 702.09 750.73 702.09 750.73 566.71"/><polygon class="cls-5" points="750.73 840.87 750.73 932.84 863.17 774.48 750.73 840.87"/><polygon class="cls-3" points="750.73 932.84 750.73 840.87 638.35 774.48 750.73 932.84"/><polygon class="cls-6" points="750.73 819.6 863.1 753.17 750.73 702.09 750.73 819.6"/><polygon class="cls-5" points="638.35 753.17 750.73 819.6 750.73 702.09 638.35 753.17"/></g></svg>